<?xml version="1.0" encoding="utf-8"?>
<!-- Generator: Adobe Illustrator 15.0.0, SVG Export Plug-In . SVG Version: 6.00 Build 0)  -->
<!DOCTYPE svg PUBLIC "-//W3C//DTD SVG 1.1//EN" "http://www.w3.org/Graphics/SVG/1.1/DTD/svg11.dtd">
<svg version="1.1" id="Layer_1" xmlns="http://www.w3.org/2000/svg" xmlns:xlink="http://www.w3.org/1999/xlink" x="0px" y="0px"
	 width="220px" height="40px" viewBox="0 0 220 40" enable-background="new 0 0 220 40" xml:space="preserve">
<g>
	<path fill="#58A05D" d="M109.126,12.212h12.217v2.188h-9.803v8.75h9.445v2.188h-9.445V36.39h-2.414V12.212z"/>
	<path fill="#58A05D" d="M136.866,11.792c6.789,0,12.802,5.396,12.802,12.509c0,7.131-6.044,12.51-12.802,12.51
		c-6.854,0-12.77-5.59-12.77-12.379C124.098,16.832,130.433,11.792,136.866,11.792z M136.866,34.623
		c5.591,0,10.388-4.537,10.388-10.289c0-5.655-4.667-10.354-10.388-10.354c-5.461,0-10.354,4.438-10.354,10.448
		C126.512,29.957,131.243,34.623,136.866,34.623z"/>
	<path fill="#58A05D" d="M153.36,12.212h6.145c3.238,0,4.828,0.39,5.945,0.908c2.705,1.279,4.312,3.921,4.312,6.887
		c0,3.5-2.512,7.064-7.194,7.355l6.821,9.01h-3.047l-8.198-10.938c3.077,0,4.114-0.027,5.2-0.354
		c2.644-0.745,3.986-2.966,3.986-5.137c0-1.896-1.089-3.856-2.644-4.639c-1.44-0.746-2.677-0.903-4.699-0.903h-4.211v21.984h-2.416
		V12.212L153.36,12.212z"/>
	<path fill="#58A05D" d="M173.388,12.212h3.729l8.783,20.579l8.812-20.579h3.729v24.177h-2.414V14.871h-0.062l-9.043,21.519h-2.06
		l-8.979-21.535h-0.063v21.535h-2.414V12.212H173.388z"/>
	<path fill="#58A05D" d="M204.08,29.632c0.131,3.046,2.059,4.99,5.036,4.99c2.548,0,4.861-1.961,4.861-4.796
		c0-3.729-3.761-4.667-5.396-5.169c-2.188-0.648-6.271-1.572-6.271-6.368c0-3.759,2.965-6.498,6.789-6.498
		c3.953,0,6.691,3.046,6.691,6.562h-2.416c0-2.441-1.992-4.375-4.275-4.375c-2.771,0-4.375,2.123-4.375,4.218
		c0,2.933,2.574,3.63,5.752,4.532c5.945,1.604,5.916,6.271,5.916,6.983c0,3.729-2.998,7.098-7.293,7.098
		c-3.145,0-7.354-1.858-7.453-7.189h2.434L204.08,29.632L204.08,29.632z"/>
</g>
<g>
	<path fill="#58A05D" d="M15.171,26.363c0.584,0,1.021,0.183,1.312,0.521c0.292,0.34,0.422,0.681,0.373,0.985
		c-0.081,0.776-0.486,1.456-1.248,2.023c-0.761,0.583-1.572,1.086-2.463,1.507c-0.893,0.421-1.798,0.794-2.723,1.104
		c-0.924,0.308-1.7,0.562-2.316,0.762c-0.113,0.228-0.195,0.453-0.229,0.664c-0.03,0.211-0.08,0.422-0.111,0.615
		c-0.033,0.422,0.062,0.746,0.322,0.957c0.262,0.211,0.584,0.34,1.021,0.372c0.665,0,1.41-0.161,2.27-0.475
		c0.859-0.308,1.863-0.854,3.015-1.62c0.665-0.421,1.329-0.924,2.024-1.475c0.697-0.567,1.266-1.053,1.687-1.475
		c0.113-0.113,0.259-0.229,0.405-0.324c0.16-0.099,0.275-0.113,0.34-0.032c0.081,0.081,0.031,0.21-0.113,0.405
		c-0.162,0.189-0.275,0.323-0.34,0.403c-0.421,0.423-0.956,0.905-1.604,1.428c-0.633,0.518-1.33,1.053-2.059,1.604
		c-2.511,1.67-4.779,2.496-6.789,2.496c-1.086,0-1.896-0.211-2.431-0.633c-0.535-0.421-0.794-1.004-0.763-1.733
		c0.08-0.529,0.228-1.085,0.471-1.62c0.227-0.53,0.533-1.064,0.923-1.567H6.081l-0.47,0.47c-0.161,0.113-0.292,0.229-0.438,0.324
		c-0.129,0.097-0.241,0.113-0.322,0.032s-0.064-0.178,0.064-0.323c0.112-0.13,0.228-0.26,0.34-0.373
		c0.309-0.312,0.633-0.583,0.955-0.842c0.324-0.264,0.648-0.486,0.957-0.729c0.309-0.189,0.713-0.454,1.215-0.773
		c0.502-0.324,1.021-0.648,1.572-0.956c0.857-0.426,1.732-0.812,2.642-1.167c0.905-0.345,1.75-0.521,2.526-0.521h0.049V26.363
		L15.171,26.363z M8.431,32.699c0.583-0.189,1.23-0.438,1.977-0.729c0.729-0.292,1.41-0.648,2.025-1.069
		c0.729-0.502,1.312-1.021,1.718-1.567c0.405-0.535,0.632-1.021,0.664-1.458c0.113-0.507-0.112-0.767-0.696-0.767
		c-0.274,0.033-0.617,0.183-1.037,0.405c-0.422,0.223-0.924,0.616-1.508,1.167c-0.47,0.421-1.021,1.037-1.652,1.864
		c-0.633,0.826-1.135,1.507-1.476,2.09v0.062L8.431,32.699L8.431,32.699z"/>
	<path fill="#58A05D" d="M29.981,36.636c-0.535,0-0.972-0.146-1.312-0.438c-0.322-0.292-0.453-0.646-0.373-1.064
		c0.082-0.664,0.373-1.35,0.908-2.062c0.52-0.713,1.037-1.377,1.539-2.01c0.422-0.535,0.844-1.037,1.248-1.507
		c0.405-0.47,0.812-0.907,1.184-1.329c0.113-0.162,0.193-0.308,0.228-0.47c0.032-0.162-0.017-0.275-0.179-0.34
		c-0.162-0.081-0.405-0.065-0.729,0.062c-0.324,0.113-0.584,0.21-0.779,0.292c-0.533,0.275-1.197,0.648-1.977,1.134
		c-0.777,0.486-1.621,1.104-2.561,1.831c-0.664,0.502-1.23,0.977-1.733,1.396c-0.502,0.42-1.005,0.842-1.507,1.248
		c-0.502,0.4-1.021,0.826-1.539,1.248c-0.52,0.421-1.104,0.891-1.718,1.393c-0.472,0.341-0.974,0.521-1.509,0.521
		c-0.42,0-0.713-0.054-0.875-0.146c-0.16-0.097-0.111-0.354,0.113-0.777c0.31-0.53,0.683-1.146,1.104-1.827
		c0.421-0.685,0.906-1.36,1.458-2.062c0.47-0.616,0.858-1.118,1.167-1.507s0.713-0.891,1.215-1.507
		c0.421-0.475,0.535-0.794,0.34-0.989c-0.08-0.113-0.211-0.162-0.373-0.113c-0.178,0.032-0.34,0.102-0.486,0.183
		c-0.308,0.16-0.68,0.373-1.102,0.665c-0.421,0.292-0.811,0.583-1.167,0.902c-0.421,0.394-0.875,0.778-1.329,1.167
		c-0.47,0.394-0.908,0.794-1.328,1.218c-0.162,0.111-0.293,0.229-0.438,0.321c-0.13,0.102-0.243,0.113-0.324,0.032
		s-0.065-0.194,0.063-0.34c0.113-0.162,0.229-0.276,0.342-0.34c0.421-0.421,0.939-0.924,1.57-1.507
		c0.617-0.583,1.199-1.09,1.734-1.512c0.697-0.53,1.395-1.004,2.09-1.394c0.697-0.39,1.361-0.583,1.977-0.583
		c0.535,0,0.925,0.146,1.136,0.438c0.21,0.292,0.323,0.583,0.323,0.907c0,0.34-0.129,0.729-0.372,1.167
		c-0.261,0.421-0.535,0.859-0.845,1.28c-0.42,0.583-0.875,1.167-1.328,1.766c-0.471,0.604-0.858,1.139-1.168,1.604l0.18,0.062
		c0.695-0.583,1.458-1.215,2.27-1.879c0.811-0.681,1.717-1.41,2.721-2.171c1.006-0.778,2.092-1.491,3.259-2.155
		s2.188-0.983,3.078-0.983c0.616,0,1.087,0.129,1.427,0.4c0.323,0.275,0.454,0.664,0.373,1.167
		c-0.081,0.535-0.373,1.118-0.875,1.734s-0.988,1.215-1.458,1.798c-0.974,1.167-1.604,1.993-1.912,2.496
		c-0.421,0.664-0.502,1.085-0.228,1.28c0.162,0.11,0.373,0.146,0.632,0.08c0.274-0.064,0.521-0.146,0.763-0.262
		c0.34-0.158,0.762-0.391,1.215-0.693c0.471-0.312,0.988-0.686,1.572-1.104c0.471-0.354,0.973-0.762,1.507-1.248
		c0.535-0.481,0.988-0.875,1.329-1.183c0.162-0.113,0.292-0.21,0.438-0.292c0.131-0.081,0.244-0.081,0.324,0
		c0.082,0.081,0.032,0.21-0.146,0.373c-0.179,0.163-0.31,0.308-0.373,0.373c-0.341,0.308-0.875,0.776-1.572,1.427
		c-0.696,0.631-1.36,1.166-1.978,1.604c-0.615,0.471-1.395,0.974-2.316,1.508c-0.924,0.532-1.88,0.81-2.854,0.81H29.98v-0.1h0.003
		v0.008H29.981z"/>
	<path fill="#58A05D" d="M46.931,36.636c-0.535,0-0.939-0.113-1.184-0.341c-0.26-0.229-0.404-0.521-0.438-0.875
		c-0.033-0.312,0.017-0.664,0.178-1.036c0.162-0.395,0.373-0.729,0.632-1.037h-0.063c-0.423,0.354-0.892,0.713-1.396,1.102
		c-0.502,0.395-1.037,0.729-1.604,1.037c-0.566,0.312-1.135,0.567-1.719,0.778c-0.584,0.21-1.135,0.34-1.686,0.372
		c-0.665,0.032-1.23-0.097-1.734-0.405c-0.502-0.308-0.713-0.938-0.631-1.912c0.08-0.421,0.228-0.902,0.469-1.426
		c0.229-0.519,0.617-1.085,1.168-1.717h-0.064l-0.52,0.519c-0.161,0.113-0.293,0.229-0.438,0.324
		c-0.129,0.098-0.243,0.114-0.323,0.033c-0.082-0.081-0.063-0.178,0.064-0.324c0.111-0.129,0.227-0.259,0.34-0.373
		c0.309-0.308,0.633-0.583,0.956-0.843c0.324-0.26,0.647-0.486,0.956-0.729c0.309-0.227,0.729-0.519,1.248-0.843
		s1.068-0.646,1.652-0.956c1.004-0.535,2.024-0.972,3.047-1.312c1.021-0.324,1.943-0.438,2.754-0.324
		c0.533,0.081,0.924,0.324,1.134,0.729c0.211,0.405,0.274,0.767,0.211,1.069h0.063c1.086-1.539,2.203-3.03,3.371-4.438
		c1.166-1.41,2.479-2.998,3.955-4.731c1.004-1.199,2.104-2.414,3.271-3.629c1.185-1.215,2.383-2.415,3.631-3.565
		c0.664-0.664,1.377-0.983,2.154-0.983c0.534,0,0.825,0.129,0.875,0.4c-0.39,0.394-0.857,0.858-1.396,1.431
		c-0.535,0.562-1.117,1.167-1.72,1.831c-0.603,0.662-1.196,1.324-1.799,2.009c-0.603,0.68-1.168,1.329-1.718,1.939
		c-0.474,0.535-0.957,1.118-1.461,1.723c-0.502,0.599-1.035,1.248-1.617,1.939c-0.584,0.697-1.215,1.479-1.881,2.317
		c-0.68,0.859-1.44,1.812-2.301,2.896c-0.47,0.583-0.955,1.22-1.457,1.885c-0.502,0.681-0.973,1.329-1.427,1.977
		c-0.438,0.632-0.843,1.215-1.183,1.718c-0.342,0.503-0.583,0.875-0.697,1.104c-0.421,0.664-0.502,1.085-0.229,1.274
		c0.194,0.195,0.455,0.229,0.779,0.113c0.323-0.113,0.647-0.271,0.955-0.47c0.275-0.162,0.616-0.389,1.021-0.696
		c0.404-0.309,0.826-0.616,1.248-0.924c0.615-0.502,1.166-0.94,1.619-1.329c0.471-0.389,0.858-0.729,1.166-1.037
		c0.162-0.081,0.293-0.178,0.438-0.324c0.13-0.129,0.243-0.157,0.324-0.077c0.112,0.077,0.081,0.211-0.081,0.401
		c-0.178,0.194-0.309,0.324-0.373,0.405c-0.34,0.34-0.827,0.811-1.458,1.361c-0.616,0.562-1.296,1.113-2.024,1.647
		c-0.617,0.476-1.361,0.978-2.236,1.508c-0.875,0.534-1.782,0.812-2.756,0.812h-0.068V36.636z M40.546,35.761
		c0.535,0,1.281-0.275,2.236-0.812c0.939-0.53,1.814-1.184,2.576-1.907c0.471-0.394,0.924-0.827,1.395-1.329
		s0.892-0.988,1.279-1.458c0.389-0.475,0.713-0.907,0.957-1.312c0.258-0.404,0.372-0.729,0.372-0.956
		c0.032-0.692-0.308-1.037-1.036-1.037c-0.584,0-1.361,0.345-2.318,1.037c-0.973,0.697-1.977,1.572-3.014,2.609
		c-1.117,1.086-1.959,2.021-2.494,2.819c-0.535,0.794-0.795,1.378-0.763,1.767s0.292,0.583,0.763,0.583L40.546,35.761L40.546,35.761
		z"/>
	<path fill="#58A05D" d="M57.788,29.215c-0.422,0.389-0.855,0.773-1.281,1.167c-0.42,0.389-0.776,0.713-1.035,0.987
		c-0.309,0.271-0.52,0.32-0.633,0.179c-0.082-0.081,0.063-0.292,0.404-0.632c0.535-0.502,1.135-1.037,1.799-1.621
		c0.664-0.583,1.33-1.167,2.023-1.733c0.857-1.118,1.912-2.463,3.16-4.002c1.266-1.54,2.514-3.062,3.742-4.521
		c1.035-1.199,2.152-2.447,3.338-3.743s2.363-2.544,3.549-3.743s2.314-2.317,3.4-3.338c1.088-1.021,2.061-1.879,2.9-2.576
		c0.663-0.535,1.408-1.069,2.271-1.572c0.854-0.502,1.696-0.762,2.562-0.762c0.776,0,1.278,0.211,1.508,0.632
		s0.31,0.907,0.229,1.458c-0.113,0.697-0.521,1.507-1.218,2.415c-0.694,0.907-1.588,1.896-2.674,2.965
		c-1.086,1.069-2.315,2.188-3.68,3.37c-1.378,1.188-2.804,2.366-4.263,3.565c-1.781,1.475-3.601,2.944-5.461,4.402
		c-1.862,1.479-3.873,3.16-6.043,5.061c-0.229,0.271-0.556,0.681-0.957,1.248c-0.404,0.562-0.826,1.167-1.248,1.799
		s-0.826,1.264-1.187,1.879c-0.373,0.616-0.631,1.118-0.774,1.507c-0.113,0.195-0.229,0.471-0.324,0.812
		c-0.101,0.34-0.049,0.61,0.146,0.811c0.193,0.162,0.474,0.178,0.847,0.064c0.373-0.114,0.68-0.265,0.955-0.405
		c0.272-0.162,0.612-0.372,1.034-0.632c0.425-0.275,0.826-0.584,1.218-0.924c0.502-0.394,1.021-0.812,1.539-1.248
		c0.521-0.438,0.938-0.826,1.245-1.139c0.162-0.081,0.293-0.178,0.439-0.292c0.131-0.108,0.242-0.13,0.322-0.062
		c0.082,0.081,0.033,0.211-0.111,0.373c-0.162,0.178-0.275,0.308-0.342,0.373c-0.34,0.34-0.857,0.81-1.506,1.393
		c-0.666,0.584-1.312,1.118-1.979,1.621c-0.584,0.47-1.358,0.972-2.315,1.506c-0.974,0.535-1.931,0.812-2.899,0.812
		c-0.584,0-1.037-0.129-1.361-0.373c-0.323-0.259-0.471-0.647-0.438-1.187c0.032-0.729,0.373-1.621,1.021-2.674
		c0.634-1.037,1.363-2.104,2.17-3.188h-0.096v-0.035L57.788,29.215L57.788,29.215z M63.296,25.667
		c1.396-1.199,2.578-2.236,3.551-3.079c0.973-0.859,1.812-1.588,2.562-2.204c0.729-0.616,1.408-1.199,2.023-1.718
		c0.613-0.521,1.266-1.069,1.912-1.653c1.396-1.199,2.736-2.398,4.033-3.581s2.447-2.285,3.451-3.322
		c1.004-1.021,1.812-1.977,2.432-2.852c0.617-0.875,0.973-1.637,1.035-2.301c0.033-0.729-0.291-1.104-0.986-1.104
		c-0.502,0-1.066,0.243-1.719,0.729c-0.633,0.481-1.264,1.021-1.879,1.604c-0.973,0.972-2.092,2.139-3.371,3.521
		c-1.277,1.377-2.674,2.979-4.18,4.796c-1.037,1.275-1.961,2.382-2.727,3.29c-0.773,0.902-1.477,1.777-2.123,2.593
		c-0.646,0.81-1.277,1.636-1.912,2.446c-0.631,0.811-1.344,1.75-2.119,2.782v0.054H63.296z"/>
	<path fill="#58A05D" d="M74.331,26.363c0.584,0,1.021,0.183,1.312,0.521c0.293,0.34,0.422,0.681,0.373,0.985
		c-0.08,0.776-0.484,1.456-1.248,2.023S73.2,30.979,72.306,31.4s-1.801,0.794-2.725,1.104c-0.924,0.308-1.701,0.562-2.314,0.762
		c-0.113,0.228-0.193,0.453-0.229,0.664c-0.033,0.211-0.08,0.422-0.11,0.615c-0.033,0.422,0.062,0.746,0.321,0.957
		c0.263,0.211,0.584,0.34,1.021,0.372c0.664,0,1.408-0.161,2.271-0.475c0.856-0.308,1.86-0.854,3.017-1.62
		c0.664-0.421,1.325-0.924,2.022-1.475c0.694-0.567,1.267-1.053,1.688-1.475c0.109-0.113,0.26-0.229,0.4-0.324
		c0.162-0.099,0.275-0.113,0.344-0.032c0.078,0.081,0.029,0.21-0.113,0.405c-0.162,0.189-0.273,0.323-0.34,0.403
		c-0.422,0.423-0.955,0.905-1.604,1.428c-0.631,0.518-1.328,1.053-2.062,1.604c-2.513,1.67-4.776,2.496-6.789,2.496
		c-1.086,0-1.896-0.211-2.433-0.633c-0.532-0.421-0.795-1.004-0.762-1.733c0.08-0.529,0.229-1.085,0.469-1.62
		c0.229-0.53,0.535-1.064,0.927-1.567h-0.063l-0.472,0.47c-0.162,0.113-0.293,0.229-0.438,0.324
		c-0.129,0.097-0.242,0.113-0.324,0.032c-0.078-0.081-0.061-0.183,0.066-0.324c0.111-0.13,0.229-0.26,0.34-0.373
		c0.311-0.312,0.631-0.583,0.955-0.842c0.322-0.264,0.646-0.486,0.957-0.729c0.307-0.19,0.713-0.454,1.215-0.775
		c0.502-0.322,1.021-0.646,1.57-0.954c0.857-0.426,1.732-0.812,2.643-1.167c0.908-0.345,1.75-0.521,2.527-0.521h0.049v-0.031v-0.002
		H74.331z M67.591,32.699c0.582-0.189,1.23-0.438,1.979-0.729c0.729-0.292,1.41-0.648,2.025-1.069
		c0.729-0.502,1.312-1.021,1.719-1.567c0.402-0.535,0.631-1.021,0.664-1.458c0.111-0.507-0.111-0.767-0.695-0.767
		c-0.275,0.033-0.615,0.183-1.037,0.405c-0.422,0.227-0.926,0.616-1.51,1.167c-0.469,0.421-1.021,1.037-1.65,1.864
		c-0.631,0.826-1.135,1.507-1.477,2.09v0.062L67.591,32.699L67.591,32.699z"/>
	<path fill="#58A05D" d="M84.069,35.129c0.34-0.162,0.744-0.34,1.184-0.584c0.438-0.229,0.906-0.502,1.361-0.812
		c0.812-0.503,1.555-1.021,2.234-1.567c0.682-0.535,1.215-0.977,1.604-1.28c0.112-0.114,0.243-0.229,0.405-0.324
		s0.272-0.113,0.341-0.033c0.08,0.081,0.032,0.211-0.113,0.373c-0.162,0.18-0.271,0.312-0.34,0.373
		c-0.31,0.275-0.746,0.648-1.312,1.134c-0.565,0.486-1.166,0.94-1.83,1.361c-0.664,0.422-1.297,0.812-1.912,1.135
		c-0.614,0.324-1.198,0.615-1.733,0.844c-0.531,0.229-1.265,0.474-2.17,0.695c-0.908,0.229-1.812,0.34-2.707,0.34
		c-0.774,0-1.408-0.108-1.879-0.319c-0.486-0.21-0.845-0.485-1.104-0.812c-0.262-0.325-0.42-0.694-0.482-1.103
		c-0.082-0.404-0.082-0.826,0-1.247c0.111-0.812,0.482-1.523,1.103-2.155c0.614-0.616,1.278-0.891,1.978-0.81
		c0.424,0,0.715,0.13,0.875,0.4c0.162,0.275,0.195,0.535,0.113,0.812c-0.113,0.502-0.535,0.983-1.279,1.458
		c-0.228,0.162-0.502,0.373-0.812,0.664c-0.31,0.293-0.485,0.646-0.519,1.065c-0.033,0.475,0.096,0.826,0.402,1.069
		c0.311,0.259,0.729,0.372,1.275,0.372c0.584,0,1.219-0.242,1.883-0.729c0.682-0.481,1.346-1.275,2.01-2.409
		c0.273-0.427,0.535-0.94,0.775-1.54c0.262-0.604,0.486-1.188,0.729-1.771c0.229-0.583,0.453-1.118,0.664-1.604
		c0.211-0.486,0.393-0.826,0.555-1.021v-0.062c-0.311,0.308-0.729,0.664-1.248,1.037c-0.521,0.389-1.037,0.773-1.539,1.167
		c-0.393,0.308-0.812,0.6-1.248,0.875c-0.438,0.271-0.762,0.438-0.955,0.519c-0.312,0.194-0.502,0.227-0.584,0.113
		c-0.031-0.113,0.062-0.292,0.291-0.521c0.311-0.189,0.684-0.438,1.104-0.729c0.42-0.292,0.875-0.583,1.328-0.908
		c0.533-0.389,1.086-0.812,1.619-1.248c0.531-0.438,1.135-0.956,1.799-1.54c0.082-0.113,0.211-0.275,0.373-0.486
		c0.178-0.21,0.354-0.373,0.551-0.481c0.311-0.275,0.615-0.438,0.926-0.521c0.311-0.081,0.564-0.109,0.762-0.109
		c0.664,0,0.875,0.146,0.635,0.438c-0.229,0.292-0.535,0.551-0.926,0.778c-0.273,0.189-0.533,0.34-0.775,0.47
		c-0.26,0.114-0.455,0.259-0.615,0.405c-0.229,0.227-0.354,0.47-0.373,0.729c-0.018,0.26-0.031,0.535-0.031,0.845
		c0.031,0.812,0.051,1.604,0.031,2.385c-0.018,0.773-0.211,1.567-0.551,2.382c-0.193,0.421-0.471,0.875-0.812,1.329
		c-0.342,0.453-0.695,0.81-1.035,1.037v0.129h-0.018v0.001L84.069,35.129L84.069,35.129z"/>
	<path fill="#58A05D" d="M97.309,35.129c0.342-0.162,0.746-0.34,1.185-0.584c0.438-0.229,0.907-0.502,1.36-0.812
		c0.812-0.503,1.556-1.021,2.233-1.567c0.683-0.535,1.218-0.977,1.604-1.28c0.113-0.114,0.244-0.229,0.406-0.324
		c0.159-0.097,0.272-0.113,0.34-0.033c0.08,0.081,0.031,0.211-0.112,0.373c-0.162,0.18-0.275,0.312-0.343,0.373
		c-0.308,0.275-0.743,0.648-1.312,1.134c-0.564,0.486-1.166,0.94-1.83,1.361c-0.662,0.422-1.297,0.812-1.91,1.135
		c-0.615,0.324-1.199,0.615-1.73,0.844c-0.533,0.229-1.268,0.474-2.174,0.695c-0.904,0.229-1.812,0.34-2.707,0.34
		c-0.773,0-1.406-0.108-1.879-0.319c-0.482-0.21-0.842-0.485-1.104-0.812c-0.26-0.324-0.422-0.694-0.484-1.103
		c-0.082-0.404-0.082-0.826,0-1.247c0.111-0.812,0.484-1.523,1.104-2.155c0.612-0.616,1.278-0.891,1.979-0.81
		c0.422,0,0.713,0.13,0.875,0.4c0.161,0.275,0.192,0.535,0.11,0.812c-0.11,0.502-0.532,0.983-1.276,1.458
		c-0.229,0.162-0.504,0.373-0.812,0.664c-0.312,0.293-0.485,0.646-0.521,1.065c-0.033,0.475,0.1,0.826,0.402,1.069
		c0.311,0.259,0.729,0.372,1.279,0.372c0.584,0,1.215-0.242,1.881-0.729c0.682-0.481,1.346-1.275,2.008-2.409
		c0.275-0.427,0.535-0.94,0.779-1.54c0.258-0.604,0.482-1.188,0.729-1.771c0.229-0.583,0.451-1.118,0.664-1.604
		c0.211-0.486,0.389-0.826,0.551-1.021v-0.062c-0.311,0.308-0.729,0.664-1.246,1.037c-0.521,0.389-1.035,0.773-1.541,1.167
		c-0.389,0.308-0.812,0.6-1.244,0.875c-0.439,0.271-0.764,0.438-0.955,0.519c-0.312,0.194-0.502,0.227-0.584,0.113
		c-0.031-0.113,0.062-0.292,0.291-0.521c0.309-0.189,0.682-0.438,1.104-0.729c0.42-0.292,0.875-0.583,1.324-0.908
		c0.535-0.389,1.086-0.812,1.621-1.248c0.533-0.438,1.137-0.956,1.797-1.54c0.082-0.113,0.211-0.275,0.373-0.486
		c0.182-0.21,0.355-0.373,0.555-0.481c0.311-0.275,0.613-0.438,0.924-0.521c0.311-0.081,0.564-0.109,0.764-0.109
		c0.664,0,0.875,0.146,0.633,0.438c-0.229,0.292-0.535,0.551-0.924,0.778c-0.273,0.189-0.535,0.34-0.775,0.47
		c-0.262,0.114-0.453,0.259-0.615,0.405c-0.229,0.227-0.355,0.47-0.373,0.729c-0.02,0.26-0.033,0.535-0.033,0.845
		c0.033,0.812,0.051,1.604,0.033,2.385c-0.02,0.773-0.211,1.567-0.553,2.382c-0.193,0.421-0.471,0.875-0.811,1.329
		c-0.344,0.453-0.697,0.81-1.037,1.037v0.129H97.31L97.309,35.129L97.309,35.129z"/>
</g>
</svg>
